<svg width="644" height="401" viewBox="0 0 644 401" fill="none" xmlns="http://www.w3.org/2000/svg">
<path d="M70.9229 124.486H570.805V122.516H70.9229V124.486ZM570.805 122.516H70.9229V124.486H570.805V122.516ZM564.278 399.03H77.4516V401H564.278V399.03ZM77.4516 399.03C74.3898 399.03 71.9079 396.548 71.9079 393.487H69.9378C69.9378 397.636 73.302 401 77.4516 401V399.03ZM71.9079 393.487V97.26H69.9378V393.487H71.9079ZM71.9079 97.26C71.9079 94.1994 74.3898 91.7173 77.4516 91.7173V89.7472C73.302 89.7472 69.9378 93.1112 69.9378 97.26H71.9079ZM77.4516 91.7173H564.278V89.7472H77.4516V91.7173ZM564.278 91.7173C567.338 91.7173 569.82 94.1993 569.82 97.26H571.79C571.79 93.1113 568.426 89.7472 564.278 89.7472V91.7173ZM569.82 97.26V393.487H571.79V97.26H569.82ZM569.82 393.487C569.82 396.548 567.338 399.03 564.278 399.03V401C568.426 401 571.79 397.636 571.79 393.487H569.82Z" fill="#CFC7BF"/>
<path fill-rule="evenodd" clip-rule="evenodd" d="M103.868 107.451C103.868 109.976 101.82 112.023 99.295 112.023C96.7694 112.023 94.7223 109.976 94.7223 107.451C94.7223 104.926 96.7694 102.879 99.295 102.879C101.82 102.879 103.868 104.926 103.868 107.451Z" fill="#ED9F94"/>
<path fill-rule="evenodd" clip-rule="evenodd" d="M121.638 107.451C121.638 109.976 119.591 112.023 117.065 112.023C114.54 112.023 112.494 109.976 112.494 107.451C112.494 104.926 114.54 102.879 117.065 102.879C119.591 102.879 121.638 104.926 121.638 107.451Z" fill="#D2BD59"/>
<path fill-rule="evenodd" clip-rule="evenodd" d="M139.409 107.451C139.409 109.976 137.361 112.023 134.837 112.023C132.311 112.023 130.264 109.976 130.264 107.451C130.264 104.926 132.311 102.879 134.837 102.879C137.361 102.879 139.409 104.926 139.409 107.451Z" fill="#1A7B6E"/>
<path fill-rule="evenodd" clip-rule="evenodd" d="M635.744 233.872H518.262C514.95 233.872 512.265 231.188 512.265 227.875V119.222C512.265 115.91 514.95 113.225 518.262 113.225H635.744C639.057 113.225 641.742 115.91 641.742 119.222V227.875C641.742 231.188 639.057 233.872 635.744 233.872Z" fill="#E3E1DC"/>
<path fill-rule="evenodd" clip-rule="evenodd" d="M635.744 233.872H518.262C514.95 233.872 512.265 231.188 512.265 227.875V119.222C512.265 115.91 514.95 113.225 518.262 113.225H635.744C639.057 113.225 641.742 115.91 641.742 119.222V227.875C641.742 231.188 639.057 233.872 635.744 233.872Z" stroke="#CFC7BF" stroke-width="1.968"/>
<path fill-rule="evenodd" clip-rule="evenodd" d="M546.665 202.488H607.725C611.055 202.488 613.755 199.789 613.755 196.46V146.417C613.755 143.089 611.055 140.39 607.725 140.39H546.665C543.336 140.39 540.637 143.089 540.637 146.417V196.46C540.637 199.789 543.336 202.488 546.665 202.488Z" fill="#FF9048"/>
<path d="M560.132 181.764H559.308C559.308 182.219 559.677 182.588 560.132 182.588V181.764ZM593.874 181.764V182.588C594.329 182.588 594.698 182.219 594.698 181.764H593.874ZM593.874 159.136H594.698C594.698 158.68 594.329 158.311 593.874 158.311V159.136ZM560.132 159.136V158.311C559.677 158.311 559.308 158.68 559.308 159.136H560.132ZM560.132 159.136V158.311C559.781 158.311 559.469 158.534 559.354 158.866C559.239 159.197 559.346 159.566 559.622 159.783L560.132 159.136ZM577.004 172.431L576.494 173.079C576.793 173.315 577.215 173.315 577.514 173.079L577.004 172.431ZM593.874 159.136L594.384 159.783C594.66 159.566 594.768 159.197 594.653 158.866C594.538 158.534 594.225 158.311 593.874 158.311V159.136ZM560.132 182.588H593.874V180.939H560.132V182.588ZM594.698 181.764V159.136H593.05V181.764H594.698ZM593.874 158.311H560.132V159.96H593.874V158.311ZM559.308 159.136V181.764H560.957V159.136H559.308ZM559.622 159.783L576.494 173.079L577.514 171.784L560.643 158.488L559.622 159.783ZM577.514 173.079L594.384 159.783L593.364 158.488L576.494 171.784L577.514 173.079ZM593.874 158.311H560.132V159.96H593.874V158.311Z" fill="#FFFFFE"/>
<path fill-rule="evenodd" clip-rule="evenodd" d="M118.745 324.855H6.70388C3.54564 324.855 0.985006 322.294 0.985006 319.135V221.451C0.985006 218.292 3.54564 215.732 6.70388 215.732H118.745C121.903 215.732 124.465 218.292 124.465 221.451V319.135C124.465 322.294 121.903 324.855 118.745 324.855Z" fill="#E3E1DC"/>
<path fill-rule="evenodd" clip-rule="evenodd" d="M118.745 324.855H6.70388C3.54564 324.855 0.985006 322.294 0.985006 319.135V221.451C0.985006 218.292 3.54564 215.732 6.70388 215.732H118.745C121.903 215.732 124.465 218.292 124.465 221.451V319.135C124.465 322.294 121.903 324.855 118.745 324.855Z" stroke="#CFC7BF" stroke-width="1.968"/>
<path fill-rule="evenodd" clip-rule="evenodd" d="M91.488 303.831H33.3793C29.7085 303.831 26.7335 300.856 26.7335 297.185V241.067C26.7335 237.396 29.7085 234.421 33.3793 234.421H91.488C95.1588 234.421 98.1348 237.396 98.1348 241.067V297.185C98.1348 300.856 95.1588 303.831 91.488 303.831Z" fill="#FF9048"/>
<path fill-rule="evenodd" clip-rule="evenodd" d="M81.0433 268.594H72.3653C72.3183 265.985 71.9789 263.376 71.3333 260.768H78.7018C80.0322 263.102 80.8611 265.76 81.0433 268.594ZM78.7018 278.781H71.1C71.7867 276.172 72.2022 273.564 72.3293 270.954H81.0433C80.8611 273.789 80.0332 276.447 78.7018 278.781ZM67.9148 287.278C68.9048 285.233 69.7366 283.188 70.4033 281.142H77.0982C74.7748 284.046 71.5825 286.222 67.9148 287.278ZM62.8696 287.987C62.0608 287.987 61.2639 287.934 60.4841 287.832C59.371 285.601 58.423 283.372 57.6602 281.142H68.0779C67.3151 283.372 66.3672 285.601 65.256 287.832C64.4742 287.934 63.6784 287.987 62.8696 287.987ZM48.641 281.142H55.3358C56.0025 283.187 56.8344 285.233 57.8234 287.278C54.1566 286.222 50.9633 284.046 48.641 281.142ZM47.0373 278.781C45.7059 276.447 44.8771 273.789 44.6959 270.954H53.4099C53.537 273.563 53.9514 276.172 54.6391 278.781H47.0373ZM47.0373 260.768H54.4059C53.7602 263.376 53.4209 265.985 53.3738 268.594H44.6959C44.8771 265.76 45.7059 263.102 47.0373 260.768ZM57.5761 252.344C56.5511 254.364 55.7202 256.386 55.0746 258.407H48.641C50.9113 255.569 54.0125 253.425 57.5761 252.344ZM62.8696 251.561C63.8406 251.561 64.7926 251.639 65.7215 251.784C66.9588 253.992 67.9278 256.199 68.6485 258.407H57.0906C57.8114 256.199 58.7804 253.992 60.0177 251.784C60.9466 251.639 61.8996 251.561 62.8696 251.561ZM70.2031 270.954C70.0249 273.563 69.5524 276.172 68.8157 278.781H56.9225C56.1867 276.173 55.7142 273.564 55.536 270.954H70.2031ZM55.457 268.594C55.46 265.985 55.7673 263.376 56.4129 260.768H69.3262C69.9719 263.376 70.2792 265.985 70.2822 268.594H55.457ZM77.0982 258.407H70.6646C70.0189 256.386 69.1881 254.364 68.163 252.344C71.7267 253.425 74.8279 255.569 77.0982 258.407ZM48.5949 255.5C40.7549 263.34 40.7549 276.209 48.5949 284.05C56.435 291.89 69.3042 291.89 77.1442 284.05C84.9843 276.209 84.9843 263.34 77.1442 255.5C69.3042 247.659 56.435 247.659 48.5949 255.5Z" fill="#FFFFFE"/>
<path fill-rule="evenodd" clip-rule="evenodd" d="M112.067 62.1919H10.5648C8.46769 62.1919 6.76794 60.4921 6.76794 58.395C6.76794 56.2978 8.46769 54.5981 10.5648 54.5981H112.067C114.164 54.5981 115.864 56.2978 115.864 58.395C115.864 60.4921 114.164 62.1919 112.067 62.1919Z" fill="#FF9048"/>
<path fill-rule="evenodd" clip-rule="evenodd" d="M639.88 310.131H590.615C588.519 310.131 586.818 308.431 586.818 306.334C586.818 304.238 588.519 302.537 590.615 302.537H639.88C641.978 302.537 643.677 304.238 643.677 306.334C643.677 308.431 641.978 310.131 639.88 310.131Z" fill="#54BCC2"/>
<path fill-rule="evenodd" clip-rule="evenodd" d="M605.376 354.053H599.357C597.775 354.053 596.492 352.77 596.492 351.189V345.537C596.492 343.955 597.775 342.674 599.357 342.674H605.376C606.959 342.674 608.241 343.955 608.241 345.537V351.189C608.241 352.77 606.959 354.053 605.376 354.053Z" fill="#A46EA1"/>
<path fill-rule="evenodd" clip-rule="evenodd" d="M34.7427 380.358H28.7225C27.1409 380.358 25.8586 379.075 25.8586 377.494V371.843C25.8586 370.261 27.1409 368.978 28.7225 368.978H34.7427C36.3243 368.978 37.6066 370.261 37.6066 371.843V377.494C37.6066 379.075 36.3243 380.358 34.7427 380.358Z" fill="#ED9F94"/>
<path fill-rule="evenodd" clip-rule="evenodd" d="M395.305 58.2698C393.639 58.2698 392.289 56.9195 392.289 55.2547V30.7936C392.289 29.1289 393.639 27.7795 395.305 27.7795H495.491C497.157 27.7795 498.506 29.1289 498.506 30.7936V55.2547C498.506 56.9195 497.157 58.2698 495.491 58.2698H395.305Z" fill="#FF9048"/>
<path d="M406.757 39.2343H478.008V38.0531H406.757V39.2343ZM406.757 46.5468H435.78V45.3656H406.757V46.5468Z" fill="#FFFFFE"/>
<path fill-rule="evenodd" clip-rule="evenodd" d="M403.859 54.8204V66.7036L418.804 54.8204H403.859Z" fill="#ED9F94"/>
<path fill-rule="evenodd" clip-rule="evenodd" d="M249.345 60.0837H200.847C196.136 60.0837 192.319 56.2648 192.319 51.555V6.46664C192.319 2.89497 195.214 0 198.784 0H249.345C252.916 0 255.811 2.89497 255.811 6.46664V53.6171C255.811 57.1888 252.916 60.0837 249.345 60.0837Z" fill="#FF9048"/>
<path fill-rule="evenodd" clip-rule="evenodd" d="M237.397 37.8419C237.139 38.1002 236.88 38.3584 236.622 38.6167C236.17 39.0041 235.783 39.4566 235.331 39.908C234.685 40.5537 233.974 40.877 233.006 40.877C232.877 40.877 232.813 40.877 232.684 40.877C230.747 40.7479 228.939 39.9731 227.648 39.3274C223.968 37.5196 220.74 35.001 218.029 31.7737C215.834 29.1259 214.349 26.6084 213.315 23.9616C212.67 22.412 212.411 21.1858 212.541 19.9585C212.605 19.2488 212.864 18.6031 213.445 18.0866L215.641 15.8913C215.834 15.6981 216.156 15.4399 216.543 15.4399C216.931 15.4399 217.189 15.6331 217.447 15.8913C217.835 16.2787 218.222 16.6661 218.61 17.0535C218.804 17.2477 218.997 17.506 219.255 17.6992L221.063 19.5071C221.256 19.7003 221.515 20.0887 221.515 20.411C221.515 20.7984 221.256 21.1207 221.063 21.3149C220.869 21.5081 220.676 21.7023 220.482 21.8955C219.901 22.4771 219.384 22.9926 218.868 23.5092C218.868 23.5092 218.868 23.5092 218.804 23.5742C218.158 24.2199 218.287 24.8015 218.416 25.1879V25.253C218.868 26.4152 219.579 27.4482 220.547 28.7395C222.354 30.9989 224.291 32.7417 226.422 34.0981C226.68 34.2913 227.002 34.4204 227.26 34.5495C227.519 34.6786 227.713 34.7437 227.906 34.8728L227.971 34.9369C228.616 35.2592 229.262 35.1301 229.779 34.6146L232.038 32.3543C232.232 32.1611 232.555 31.9028 232.942 31.9028C233.266 31.9028 233.588 32.1611 233.781 32.3543L237.397 35.97C237.978 36.5506 237.978 37.1962 237.397 37.8419ZM238.881 34.4844L235.267 30.8697C234.621 30.16 233.781 29.7716 232.942 29.7716C232.102 29.7716 231.264 30.16 230.618 30.8057L228.552 32.8708C228.423 32.8067 228.294 32.7417 228.164 32.6776C227.906 32.5485 227.713 32.4834 227.519 32.3543C225.582 31.128 223.839 29.5143 222.16 27.4482C221.385 26.4792 220.805 25.5763 220.482 24.8015C220.999 24.349 221.451 23.8325 221.902 23.381C222.096 23.1868 222.289 22.9926 222.484 22.7994C223.193 22.0897 223.581 21.2499 223.581 20.411C223.581 19.5711 223.193 18.7323 222.484 18.0225L220.676 16.2147C220.482 16.0205 220.288 15.8273 220.094 15.569C219.708 15.1816 219.255 14.7302 218.868 14.3418C218.222 13.6961 217.383 13.3097 216.543 13.3097C215.705 13.3097 214.93 13.632 214.22 14.3418L211.96 16.6021C211.121 17.4409 210.604 18.5391 210.475 19.7653C210.346 21.7023 210.863 23.5092 211.314 24.6724C212.347 27.6414 213.961 30.2881 216.35 33.1291C219.255 36.5506 222.677 39.2624 226.68 41.1993C228.164 41.9091 230.231 42.7489 232.491 42.9421C232.619 42.9421 232.748 42.9421 232.942 42.9421C234.492 42.9421 235.783 42.3615 236.815 41.2634C236.815 41.2634 236.815 41.2634 236.88 41.1993C237.204 40.812 237.59 40.4246 238.043 40.0372C238.301 39.7789 238.624 39.4566 238.881 39.1983C240.238 37.7778 240.238 35.8408 238.881 34.4844Z" fill="#FFFFFE"/>
<mask id="mask0_1_17" style="mask-type:luminance" maskUnits="userSpaceOnUse" x="383" y="282" width="87" height="118">
<path fill-rule="evenodd" clip-rule="evenodd" d="M383.113 282.708H469.861V399.207H383.113V282.708Z" fill="white"/>
</mask>
<g mask="url(#mask0_1_17)">
<path fill-rule="evenodd" clip-rule="evenodd" d="M460.31 287.573L423.77 282.708L424.056 286.337L392.815 290.496C392.815 290.496 372.678 341.018 390.425 452.127H415.838L424.984 339.463H428.233L437.091 452.127H462.504C480.251 341.018 460.31 287.573 460.31 287.573Z" fill="#7E6663"/>
</g>
<path d="M413.366 339.463H439.879" stroke="#232325" stroke-width="1.233" stroke-linecap="round" stroke-linejoin="round"/>
<path fill-rule="evenodd" clip-rule="evenodd" d="M481.648 234.278C478.522 229.288 460.962 229.464 460.035 229.356C455.288 228.799 463.079 266.574 472.954 299.595C474.848 305.925 481.813 309.223 487.896 306.643C487.962 306.615 488.027 306.587 488.093 306.56C492.906 304.521 495.644 299.412 494.676 294.275C489.979 269.36 485.263 240.047 481.648 234.278Z" fill="#ED9F94"/>
<path fill-rule="evenodd" clip-rule="evenodd" d="M485.833 247.937L463.413 256.637L461.311 246L484.527 240.209L485.833 247.937Z" fill="#E0857D"/>
<path fill-rule="evenodd" clip-rule="evenodd" d="M490.067 269.218C490.067 269.218 479.447 283.481 479.953 282.826C480.459 282.17 488.282 259.775 488.282 259.775L490.067 269.218Z" fill="#E0857D"/>
<path fill-rule="evenodd" clip-rule="evenodd" d="M505.253 250.046L474.81 289.489C470.813 294.668 472.089 302.155 477.577 305.718C483.054 309.274 490.401 307.405 493.512 301.663L518.853 254.91L505.253 250.046Z" fill="#ED9F94"/>
<path fill-rule="evenodd" clip-rule="evenodd" d="M513.132 260.174C506.532 258.042 502.911 250.965 505.043 244.364C507.175 237.764 514.253 234.144 520.853 236.275C527.453 238.407 531.075 245.485 528.942 252.085C526.81 258.686 519.732 262.307 513.132 260.174Z" fill="#ED9F94"/>
<path fill-rule="evenodd" clip-rule="evenodd" d="M526.15 240.675C526.15 240.675 529.586 237.108 523.489 234.607C517.393 232.106 509.855 232.68 505.043 244.364L526.15 240.675Z" fill="#ED9F94"/>
<path fill-rule="evenodd" clip-rule="evenodd" d="M532.465 215.749L545.212 221.275C545.921 221.583 546.179 222.423 545.788 223.153L529.02 254.476C528.629 255.205 527.737 255.549 527.028 255.24L514.281 249.715C513.572 249.406 513.314 248.565 513.704 247.837L530.473 216.513C530.864 215.784 531.756 215.441 532.465 215.749Z" fill="#383051"/>
<path fill-rule="evenodd" clip-rule="evenodd" d="M531.248 215.194L543.994 220.721C544.704 221.028 544.962 221.869 544.57 222.599L527.801 253.921C527.412 254.651 526.52 254.993 525.81 254.686L513.064 249.159C512.354 248.852 512.096 248.012 512.488 247.281L529.256 215.959C529.646 215.229 530.538 214.887 531.248 215.194Z" fill="#261E35"/>
<path fill-rule="evenodd" clip-rule="evenodd" d="M529.809 218.381L541.01 223.236L527.343 248.765L516.143 243.91L529.809 218.381Z" fill="#D9D8D2"/>
<path fill-rule="evenodd" clip-rule="evenodd" d="M541.01 223.236L516.143 243.91L529.809 218.381L541.01 223.236Z" fill="#FFFFFE"/>
<path fill-rule="evenodd" clip-rule="evenodd" d="M519.829 233.567C519.829 233.567 522.667 234.121 525.229 235.572C526.358 236.211 526.935 237.513 526.623 238.772C526.337 239.921 525.376 240.773 524.203 240.922L517.576 241.757C517.576 241.757 514.117 247.718 509.601 248.386L513.744 237.922L519.829 233.567Z" fill="#ED9F94"/>
<path fill-rule="evenodd" clip-rule="evenodd" d="M435.198 184.607C434.466 184.602 482.192 191.21 490.067 245.624L465.302 249.418L460.31 290.496H391.222L377.506 214.599C377.506 214.599 392.813 192.663 421.232 184.607H435.198Z" fill="url(#paint0_linear_1_17)"/>
<path d="M465.302 249.418L467.451 225.66" stroke="#232325" stroke-width="1.233" stroke-linecap="round" stroke-linejoin="round"/>
<path fill-rule="evenodd" clip-rule="evenodd" d="M439.734 185.384V166.484H417.585V185.607C416.452 185.945 414.564 186.628 411.635 188.019L428.909 198.31L446.57 188.019C446.57 188.019 443.766 186.388 439.734 185.384Z" fill="#ED9F94"/>
<path fill-rule="evenodd" clip-rule="evenodd" d="M417.38 168.792C417.38 168.792 421.357 179.355 431.976 178.443C441.736 177.606 440.182 162.967 440.182 162.967L417.38 168.792Z" fill="#232325"/>
<path fill-rule="evenodd" clip-rule="evenodd" d="M407.72 154.746C404.248 157.895 396.485 145.951 399.84 142.597C403.194 139.245 405.754 144.505 405.754 144.505L407.251 148.071L408.381 152.899L408.649 154.164L407.72 154.746Z" fill="#E0857D"/>
<path d="M401.46 146.829C401.46 146.829 404.088 145.647 406.423 149.456" stroke="#232325" stroke-width="0.993" stroke-linecap="round" stroke-linejoin="round"/>
<path fill-rule="evenodd" clip-rule="evenodd" d="M448.775 154.384C451.968 157.815 460.713 146.571 457.654 142.946C454.596 139.32 451.601 144.346 451.601 144.346L449.807 147.772L448.273 152.488L447.898 153.725L448.775 154.384Z" fill="#E0857D"/>
<path d="M455.681 147.024C455.681 147.024 453.164 145.624 450.514 149.222" stroke="#232325" stroke-width="0.993" stroke-linecap="round" stroke-linejoin="round"/>
<path fill-rule="evenodd" clip-rule="evenodd" d="M401.631 131.205C401.631 147.015 413.685 154.512 428.555 154.512C443.425 154.512 455.478 147.015 455.478 131.205C455.478 115.394 443.425 104.638 428.555 104.638C413.685 104.638 401.631 115.394 401.631 131.205Z" fill="#232325"/>
<path fill-rule="evenodd" clip-rule="evenodd" d="M405.29 132.304C405.29 142.01 406.662 150.385 408.03 156.331C409.371 162.151 413.141 166.218 418.472 169.491L419.442 170.088C425.082 173.551 432.367 173.632 438.093 170.294C443.868 166.927 447.911 162.489 449.155 156.244C451.419 144.885 451.666 132.304 451.666 132.304C451.666 132.304 453.819 107.803 428.81 108.278C403.798 108.755 405.29 132.304 405.29 132.304Z" fill="#ED9F94"/>
<path d="M426.961 146.287V149.678C426.961 149.878 426.999 150.071 427.07 150.247C427.348 150.94 428.148 151.272 428.871 151.08L430.425 150.668" stroke="#232325" stroke-width="1.232" stroke-linecap="round" stroke-linejoin="round"/>
<path fill-rule="evenodd" clip-rule="evenodd" d="M422.984 133.14L410.554 136.053C410.554 136.053 411.119 132.89 416.204 131.739C421.289 130.59 422.984 133.14 422.984 133.14Z" fill="#232325"/>
<path fill-rule="evenodd" clip-rule="evenodd" d="M434.016 133.14L446.017 136.053C446.017 136.053 445.472 132.89 440.562 131.739C435.653 130.59 434.016 133.14 434.016 133.14Z" fill="#232325"/>
<path fill-rule="evenodd" clip-rule="evenodd" d="M420.357 142.27C420.357 143.424 419.419 144.36 418.262 144.36C417.104 144.36 416.166 143.424 416.166 142.27C416.166 141.115 417.104 140.179 418.262 140.179C419.419 140.179 420.357 141.115 420.357 142.27Z" fill="#232325"/>
<path fill-rule="evenodd" clip-rule="evenodd" d="M440.23 142.27C440.23 143.424 439.291 144.36 438.134 144.36C436.976 144.36 436.037 143.424 436.037 142.27C436.037 141.115 436.976 140.179 438.134 140.179C439.291 140.179 440.23 141.115 440.23 142.27Z" fill="#232325"/>
<path fill-rule="evenodd" clip-rule="evenodd" d="M420.357 155.026H436.522C436.522 155.026 429.358 163.742 420.357 155.026Z" fill="#FFFFFE"/>
<path d="M426.293 143.082L425.835 142.591L424.589 143.754H426.293V143.082ZM430.363 143.082V143.754H431.978L430.84 142.609L430.363 143.082ZM425.621 143.082C425.621 147.634 421.932 151.324 417.38 151.324V152.668C422.674 152.668 426.965 148.376 426.965 143.082H425.621ZM417.38 151.324C412.828 151.324 409.137 147.634 409.137 143.082H407.794C407.794 148.376 412.086 152.668 417.38 152.668V151.324ZM409.137 143.082C409.137 138.53 412.828 134.84 417.38 134.84V133.496C412.086 133.496 407.794 137.788 407.794 143.082H409.137ZM417.38 134.84C421.932 134.84 425.621 138.53 425.621 143.082H426.965C426.965 137.788 422.674 133.496 417.38 133.496V134.84ZM447.52 143.082C447.52 147.634 443.83 151.324 439.278 151.324V152.668C444.572 152.668 448.863 148.376 448.863 143.082H447.52ZM439.278 151.324C434.726 151.324 431.035 147.634 431.035 143.082H429.691C429.691 148.376 433.984 152.668 439.278 152.668V151.324ZM431.035 143.082C431.035 138.53 434.726 134.84 439.278 134.84V133.496C433.984 133.496 429.691 137.788 429.691 143.082H431.035ZM439.278 134.84C443.83 134.84 447.52 138.53 447.52 143.082H448.863C448.863 137.788 444.572 133.496 439.278 133.496V134.84ZM426.293 143.082C426.751 143.573 426.751 143.573 426.751 143.573C426.751 143.573 426.751 143.574 426.751 143.574C426.75 143.574 426.75 143.574 426.75 143.574C426.749 143.575 426.749 143.575 426.749 143.575C426.749 143.575 426.749 143.575 426.75 143.574C426.751 143.573 426.754 143.57 426.76 143.566C426.77 143.557 426.787 143.542 426.811 143.522C426.859 143.483 426.933 143.426 427.029 143.362C427.222 143.232 427.489 143.081 427.797 142.983C428.104 142.885 428.435 142.844 428.772 142.91C429.103 142.974 429.484 143.15 429.887 143.556L430.84 142.609C430.263 142.028 429.645 141.711 429.029 141.591C428.42 141.472 427.856 141.554 427.389 141.703C426.925 141.851 426.542 142.07 426.278 142.248C426.145 142.338 426.039 142.419 425.964 142.48C425.926 142.511 425.896 142.536 425.875 142.555C425.864 142.564 425.855 142.572 425.848 142.578C425.845 142.581 425.842 142.584 425.84 142.586C425.839 142.587 425.838 142.588 425.837 142.589C425.836 142.589 425.836 142.59 425.836 142.59C425.835 142.59 425.835 142.591 425.835 142.591C425.835 142.591 425.835 142.591 426.293 143.082ZM430.363 142.41H426.293V143.754H430.363V142.41ZM408.483 142.411L405.675 142.339L405.641 143.682L408.449 143.754L408.483 142.411ZM405.641 143.682L408.449 143.754L408.483 142.411L405.675 142.339L405.641 143.682ZM448.208 143.754L451.033 143.682L450.999 142.339L448.175 142.411L448.208 143.754ZM450.999 142.339L448.175 142.411L448.208 143.754L451.033 143.682L450.999 142.339Z" fill="#A46EA1"/>
<path fill-rule="evenodd" clip-rule="evenodd" d="M451.344 140.427C451.344 140.427 441.344 126.909 443.652 113.214C443.652 113.214 451.073 116.949 453.006 126.589C454.939 136.23 451.344 140.427 451.344 140.427Z" fill="#232325"/>
<path fill-rule="evenodd" clip-rule="evenodd" d="M405.273 141.343C405.273 141.343 416.89 125.989 414.583 112.294C414.583 112.294 406.526 116.949 404.593 126.589C402.661 136.23 405.273 141.343 405.273 141.343Z" fill="#232325"/>
<path fill-rule="evenodd" clip-rule="evenodd" d="M450.506 118.608C450.506 118.608 437.666 132.664 402.537 130.258C402.537 130.258 407.916 109.632 424.941 107.434C424.941 107.434 444.598 105.087 450.506 118.608Z" fill="#232325"/>
<mask id="mask1_1_17" style="mask-type:luminance" maskUnits="userSpaceOnUse" x="167" y="85" width="300" height="315">
<path fill-rule="evenodd" clip-rule="evenodd" d="M167.805 85.4027H466.377V399.207H167.805V85.4027Z" fill="white"/>
</mask>
<g mask="url(#mask1_1_17)">
<path fill-rule="evenodd" clip-rule="evenodd" d="M466.377 102.175C466.377 111.438 458.867 118.948 449.604 118.948C440.34 118.948 432.831 111.438 432.831 102.175C432.831 92.9124 440.34 85.4027 449.604 85.4027C458.867 85.4027 466.377 92.9124 466.377 102.175Z" fill="#232325"/>
<path fill-rule="evenodd" clip-rule="evenodd" d="M244.85 287.535L213.609 283.375L213.895 279.747L177.355 284.612C177.355 284.612 157.414 338.056 175.161 449.166H200.574L209.432 336.502H212.681L221.827 449.166H247.239C264.987 338.056 244.85 287.535 244.85 287.535Z" fill="#232325"/>
</g>
<path fill-rule="evenodd" clip-rule="evenodd" d="M242.358 135.535C238.13 130.56 234.744 124.758 231.867 116.615C228.778 107.873 218.665 111.426 218.665 111.426C218.665 111.426 210.237 100.584 197.555 104.361C184.873 108.137 180.466 117.161 180.208 127.89C179.949 138.62 171.51 140.298 165.012 152.71C153.539 174.622 172.855 193.079 208.015 187.959L208.062 187.618C211.524 188.669 215.768 189.128 220.948 188.821C263.187 186.312 259.111 155.244 242.358 135.535Z" fill="#232325"/>
<path fill-rule="evenodd" clip-rule="evenodd" d="M228.53 151.785C232.001 154.933 239.763 142.99 236.409 139.636C233.055 136.283 230.496 141.544 230.496 141.544L228.998 145.109L227.868 149.938L227.6 151.202L228.53 151.785Z" fill="#E0857D"/>
<path d="M234.788 143.867C234.788 143.867 232.161 142.686 229.825 146.495" stroke="#232325" stroke-width="0.993" stroke-linecap="round" stroke-linejoin="round"/>
<path fill-rule="evenodd" clip-rule="evenodd" d="M187.474 151.423C184.28 154.854 175.535 143.61 178.594 139.985C181.654 136.359 184.648 141.384 184.648 141.384L186.442 144.811L187.976 149.527L188.351 150.764L187.474 151.423Z" fill="#E0857D"/>
<path d="M180.568 144.063C180.568 144.063 183.086 142.663 185.735 146.261" stroke="#232325" stroke-width="0.993" stroke-linecap="round" stroke-linejoin="round"/>
<path fill-rule="evenodd" clip-rule="evenodd" d="M234.618 128.243C234.618 144.053 222.564 151.551 207.694 151.551C192.825 151.551 180.771 144.053 180.771 128.243C180.771 112.433 192.825 101.676 207.694 101.676C222.564 101.676 234.618 112.433 234.618 128.243Z" fill="#232325"/>
<path fill-rule="evenodd" clip-rule="evenodd" d="M196.516 192.203H218.665V163.523H196.516V192.203Z" fill="#ED9F94"/>
<path fill-rule="evenodd" clip-rule="evenodd" d="M193.284 161.734C193.284 161.734 199.449 174.039 207.034 175.96C209.06 176.473 211.224 176.297 213.178 175.605C216.033 174.592 219.653 170.336 220.268 165.627L220.554 162.936C220.554 162.936 207.057 170.285 193.284 161.734Z" fill="#232325"/>
<path fill-rule="evenodd" clip-rule="evenodd" d="M230.958 129.343C230.958 139.049 229.588 147.424 228.218 153.369C226.878 159.189 223.107 163.256 217.777 166.53L216.807 167.126C211.167 170.59 203.881 170.67 198.156 167.333C192.381 163.966 188.337 159.527 187.093 153.282C184.83 141.924 184.583 129.343 184.583 129.343C184.583 129.343 182.429 104.841 207.44 105.317C232.451 105.793 230.958 129.343 230.958 129.343Z" fill="#ED9F94"/>
<path d="M206.024 144.653V146.667C206.024 146.867 206.063 147.059 206.133 147.235C206.411 147.926 207.211 148.256 207.934 148.065L209.489 147.655" stroke="#232325" stroke-width="1.23" stroke-linecap="round" stroke-linejoin="round"/>
<path fill-rule="evenodd" clip-rule="evenodd" d="M211.235 131.371L224.541 134.52C224.541 134.52 223.936 131.101 218.492 129.857C213.049 128.615 211.235 131.371 211.235 131.371Z" fill="#232325"/>
<path fill-rule="evenodd" clip-rule="evenodd" d="M204.249 131.371L190.771 134.52C190.771 134.52 191.384 131.101 196.897 129.857C202.411 128.615 204.249 131.371 204.249 131.371Z" fill="#232325"/>
<path fill-rule="evenodd" clip-rule="evenodd" d="M199.421 139.631C199.421 140.781 198.482 141.715 197.325 141.715C196.167 141.715 195.228 140.781 195.228 139.631C195.228 138.479 196.167 137.545 197.325 137.545C198.482 137.545 199.421 138.479 199.421 139.631Z" fill="#232325"/>
<path fill-rule="evenodd" clip-rule="evenodd" d="M219.293 139.631C219.293 140.781 218.354 141.715 217.197 141.715C216.039 141.715 215.101 140.781 215.101 139.631C215.101 138.479 216.039 137.545 217.197 137.545C218.354 137.545 219.293 138.479 219.293 139.631Z" fill="#232325"/>
<path fill-rule="evenodd" clip-rule="evenodd" d="M198.036 151.551H216.434C216.434 151.551 215.136 156.606 206.793 156.606C200.44 156.606 198.036 151.551 198.036 151.551Z" fill="#FFFFFE"/>
<path fill-rule="evenodd" clip-rule="evenodd" d="M184.904 137.466C184.904 137.466 194.904 123.947 192.598 110.252C192.598 110.252 185.175 113.987 183.242 123.628C181.31 133.268 184.904 137.466 184.904 137.466Z" fill="#232325"/>
<path fill-rule="evenodd" clip-rule="evenodd" d="M230.975 137.016C230.975 137.016 219.359 123.028 221.667 109.333C221.667 109.333 229.723 113.987 231.656 123.628C233.589 133.268 230.975 137.016 230.975 137.016Z" fill="#232325"/>
<path fill-rule="evenodd" clip-rule="evenodd" d="M185.743 115.647C185.743 115.647 197.218 131.069 232.347 128.662C232.347 128.662 228.334 106.67 211.308 104.473C211.308 104.473 191.651 102.126 185.743 115.647Z" fill="#232325"/>
<path fill-rule="evenodd" clip-rule="evenodd" d="M153.721 355.374C153.209 356.177 182.959 225.936 174.127 227.905C173.321 228.083 157.852 229.521 155.553 234.196C148.889 247.746 144.109 354.385 144.109 354.385L153.721 355.374Z" fill="#ED9F94"/>
<path fill-rule="evenodd" clip-rule="evenodd" d="M144.109 354.385C144.109 354.385 139.314 376.634 157.441 379.066C158.635 379.227 159.789 378.521 160.183 377.382L160.235 377.231C160.668 375.974 160.038 374.626 158.824 374.083C155.869 372.762 151.285 369.424 153.559 361.841C153.559 361.841 156.179 361.519 157.625 366.408C157.997 367.665 159.409 368.296 160.58 367.707C161.379 367.303 161.829 366.444 161.716 365.556C161.282 362.132 159.56 353.893 152.953 351.681L144.109 354.385Z" fill="#ED9F94"/>
<path fill-rule="evenodd" clip-rule="evenodd" d="M150.208 265.49C150.208 265.49 167.349 289.629 167.44 289.161C167.53 288.695 173.433 255.27 173.433 255.27L152.635 246.261L150.208 265.49Z" fill="#E0857D"/>
<path fill-rule="evenodd" clip-rule="evenodd" d="M197.834 187.482C198.565 187.478 155.473 188.249 147.597 242.662L172.362 246.457L177.355 287.535H246.443L260.158 211.638C260.158 211.638 250.408 195.194 221.987 187.137L197.834 187.482Z" fill="#1A7B6E"/>
<mask id="mask2_1_17" style="mask-type:luminance" maskUnits="userSpaceOnUse" x="176" y="182" width="238" height="218">
<path fill-rule="evenodd" clip-rule="evenodd" d="M176.772 182.86H413.5V399.207H176.772V182.86Z" fill="white"/>
</mask>
<g mask="url(#mask2_1_17)">
<path fill-rule="evenodd" clip-rule="evenodd" d="M176.772 194.059C176.772 194.059 182.861 202.144 207.814 202.144C232.535 202.144 238.856 193.636 238.856 193.636C238.856 193.636 224.283 185.494 207.373 182.86C207.373 182.86 192.273 185.55 176.772 194.059Z" fill="#ED9F94"/>
<path fill-rule="evenodd" clip-rule="evenodd" d="M261.557 366.439L261.616 474.956H315.3L319.425 366.439H261.557Z" fill="#2D4F6F"/>
<path fill-rule="evenodd" clip-rule="evenodd" d="M378.117 366.439L378.059 474.956H324.375L320.249 366.439H378.117Z" fill="#2D4F6F"/>
<path fill-rule="evenodd" clip-rule="evenodd" d="M293.291 399.207H348.798V366.439H293.291V399.207Z" fill="#2D4F6F"/>
<path fill-rule="evenodd" clip-rule="evenodd" d="M412.032 271.738C415.361 308.51 411.849 335.302 412.82 402.964L380.779 404.306L376.005 277.654L412.032 271.738Z" fill="#ED9F94"/>
</g>
<path fill-rule="evenodd" clip-rule="evenodd" d="M379.956 300.433C379.956 300.433 399.799 298.616 413.365 289.668L413.007 281.792L379.945 286.296L379.956 300.433Z" fill="#E0857D"/>
<path fill-rule="evenodd" clip-rule="evenodd" d="M348.125 187.076C348.125 187.076 411.149 202.926 422.568 282.923C422.568 282.923 391.722 296.295 360.811 290.544L367.765 263.787L348.125 187.076Z" fill="#6483C9"/>
<path fill-rule="evenodd" clip-rule="evenodd" d="M159.871 220.339L206.797 275.757L192.438 316.198C192.438 316.198 156.771 266.61 140.745 228.282L159.871 220.339Z" fill="#ED9F94"/>
<path fill-rule="evenodd" clip-rule="evenodd" d="M161.414 222.339C161.414 222.339 144.936 231.649 140.745 228.281C133.42 222.396 127.367 200.854 127.367 200.854C127.367 200.854 158.182 189.237 157.892 189.691C157.602 190.145 161.414 222.339 161.414 222.339Z" fill="#ED9F94"/>
<path fill-rule="evenodd" clip-rule="evenodd" d="M161.414 222.339C161.123 220.681 167.524 202.784 169.719 196.073C170.248 194.455 169.133 192.68 167.375 192.344C166.232 192.124 164.42 192.266 163.564 193.906L155.834 207.116L161.414 222.339Z" fill="#ED9F94"/>
<path fill-rule="evenodd" clip-rule="evenodd" d="M160.849 202.993L155.543 176.592C155.227 174.836 153.463 173.625 151.702 173.958C150.177 174.246 149.172 175.604 149.351 177.132L151.665 196.79L160.849 202.993Z" fill="#ED9F94"/>
<path fill-rule="evenodd" clip-rule="evenodd" d="M150.296 193.256L143.09 174.403C142.494 172.752 140.636 171.838 138.997 172.387C137.574 172.864 136.776 174.297 137.113 175.769L142.46 197.553L150.296 193.256Z" fill="#ED9F94"/>
<path fill-rule="evenodd" clip-rule="evenodd" d="M142.552 198.814L133.435 180.29C132.598 178.57 130.516 177.773 128.807 178.516C127.202 179.214 126.491 181.033 127.179 182.686L134.447 200.174L142.552 198.814Z" fill="#ED9F94"/>
<path fill-rule="evenodd" clip-rule="evenodd" d="M127.367 200.854L120.212 189.506C119.621 188.171 120.167 186.674 121.464 186.082C122.704 185.516 124.237 185.961 125.038 187.122L134.447 200.174L127.367 200.854Z" fill="#ED9F94"/>
<path d="M159.407 201.01C159.407 201.01 148.663 199.882 147.56 214.201" stroke="#232325" stroke-width="1.532" stroke-linecap="round" stroke-linejoin="round"/>
<path fill-rule="evenodd" clip-rule="evenodd" d="M182.921 297.282C182.921 297.282 191.746 327.828 209.334 323.767C226.922 319.706 254.333 282.142 254.333 282.142L248.198 218.002L198.834 278.757L182.921 297.282Z" fill="#ED9F94"/>
<path fill-rule="evenodd" clip-rule="evenodd" d="M214.145 259.886C214.145 259.886 230.811 285.024 245.028 293.889L254.333 282.142L218.435 254.372L214.145 259.886Z" fill="#E0857D"/>
<path fill-rule="evenodd" clip-rule="evenodd" d="M287.062 185.69C287.062 185.69 238.131 196.718 212.056 253.586C212.056 253.586 227.811 277.324 253.067 287.875L269.976 267.159L287.062 185.69Z" fill="#6483C9"/>
<path fill-rule="evenodd" clip-rule="evenodd" d="M287.062 185.514C267.947 195.318 255.932 208.32 255.932 208.32L259.703 374.551H380.154L379.764 209.178C379.764 209.178 364.581 194.32 348.125 187.076C334.148 180.924 300.649 178.544 287.062 185.514Z" fill="#6483C9"/>
<path d="M344.057 265.815C343.671 265.815 343.358 266.128 343.358 266.514C343.358 266.9 343.671 267.213 344.057 267.213V265.815ZM327.303 233.006V232.307C326.917 232.307 326.604 232.62 326.604 233.006H327.303ZM360.811 233.006H361.51C361.51 232.62 361.197 232.307 360.811 232.307V233.006ZM379.257 291.141C379.246 291.527 379.55 291.849 379.936 291.86C380.322 291.871 380.644 291.567 380.655 291.181L379.257 291.141ZM382.219 236.802C382.23 236.416 381.926 236.094 381.54 236.083C381.154 236.072 380.832 236.376 380.821 236.762L382.219 236.802ZM257.085 282.136C257.106 282.522 257.436 282.817 257.821 282.796C258.207 282.775 258.502 282.445 258.481 282.059L257.085 282.136ZM255.878 234.922C255.857 234.536 255.527 234.241 255.142 234.262C254.756 234.284 254.461 234.613 254.482 234.999L255.878 234.922ZM344.057 265.815C335.191 265.815 328.002 258.627 328.002 249.761H326.604C326.604 259.399 334.419 267.213 344.057 267.213V265.815ZM328.002 249.761V233.006H326.604V249.761H328.002ZM327.303 233.706H360.811V232.307H327.303V233.706ZM360.111 233.006V249.761H361.51V233.006H360.111ZM360.111 249.761C360.111 258.627 352.924 265.815 344.057 265.815V267.213C353.696 267.213 361.51 259.399 361.51 249.761H360.111ZM380.655 291.181L382.219 236.802L380.821 236.762L379.257 291.141L380.655 291.181ZM380.821 236.762L379.257 291.141L380.655 291.181L382.219 236.802L380.821 236.762ZM258.481 282.059L255.878 234.922L254.482 234.999L257.085 282.136L258.481 282.059ZM254.482 234.999L257.085 282.136L258.481 282.059L255.878 234.922L254.482 234.999Z" fill="#232325"/>
<path fill-rule="evenodd" clip-rule="evenodd" d="M288.472 124.798L283.452 99.9576C283.17 97.9346 282.384 94.8123 283.346 91.8783C284.936 87.0243 290.781 77.7028 300.771 81.9702L302.93 91.8053C302.93 91.8053 292.556 93.8994 288.394 107.471L288.472 124.798Z" fill="#232325"/>
<path fill-rule="evenodd" clip-rule="evenodd" d="M300.035 87.0975C299.854 90.3619 296.973 104.643 286.845 109.846C286.845 109.846 277.974 90.8204 300.035 87.0975Z" fill="#232325"/>
<path fill-rule="evenodd" clip-rule="evenodd" d="M335.565 180.94V138.76H296.681V180.94L285.106 186.216C285.106 186.216 287.821 203.698 316.531 204.086C345.241 204.473 348.125 187.076 348.125 187.076L335.565 180.94Z" fill="#ED9F94"/>
<path fill-rule="evenodd" clip-rule="evenodd" d="M300.771 81.9703C300.771 81.9703 307.907 63.1449 329.913 73.1532C343.233 79.2104 346.962 87.3328 348.549 93.0867C349.077 94.9997 349.287 98.0108 349.144 99.7986L343.82 124.798L323.04 90.2107L302.93 91.8054L300.771 81.9703Z" fill="#232325"/>
<path fill-rule="evenodd" clip-rule="evenodd" d="M343.82 124.798C343.82 124.798 346.443 120.629 351.849 122.679C357.256 124.73 354.811 137.861 346.699 139.534C346.699 139.534 343.792 140.169 341.513 138.178C341.513 138.178 343.507 128.479 343.82 124.798Z" fill="#E0857D"/>
<path d="M350.777 127.312C350.777 127.312 346.248 125.8 343.032 132.47" stroke="#232325" stroke-width="1.397" stroke-linecap="round" stroke-linejoin="round"/>
<path fill-rule="evenodd" clip-rule="evenodd" d="M288.472 124.798C288.472 124.798 285.852 120.629 280.444 122.679C275.038 124.73 277.483 137.861 285.593 139.534C285.593 139.534 288.501 140.169 290.781 138.178C290.781 138.178 288.787 128.479 288.472 124.798Z" fill="#E0857D"/>
<path d="M281.517 127.312C281.517 127.312 286.046 125.8 289.26 132.47" stroke="#232325" stroke-width="1.397" stroke-linecap="round" stroke-linejoin="round"/>
<path fill-rule="evenodd" clip-rule="evenodd" d="M344.362 112.337C344.365 120.254 343.588 136.816 338.722 146.645C334.152 155.874 326.595 160.84 316.687 161.137C306.779 161.432 299.399 157.614 293.484 145.636C287.568 133.657 287.852 112.485 287.852 112.485C287.852 112.485 287.852 84.2065 315.799 84.2065C345.236 84.2065 344.362 112.337 344.362 112.337Z" fill="#ED9F94"/>
<path fill-rule="evenodd" clip-rule="evenodd" d="M296.973 151.539C296.973 151.539 300.229 168.062 314.608 169.96C331.157 172.144 335.565 151.959 335.565 151.959C335.565 151.959 328.252 161.123 316.687 161.137C303.789 161.153 296.973 151.539 296.973 151.539Z" fill="#232325"/>
<path d="M314.114 124.077V130.622C314.114 130.903 314.168 131.173 314.266 131.419C314.654 132.389 315.769 132.853 316.778 132.585L318.948 132.008" stroke="#232325" stroke-width="1.397" stroke-linecap="round" stroke-linejoin="round"/>
<path fill-rule="evenodd" clip-rule="evenodd" d="M305.859 120.952C305.859 122.358 304.72 123.497 303.316 123.497C301.91 123.497 300.771 122.358 300.771 120.952C300.771 119.548 301.91 118.408 303.316 118.408C304.72 118.408 305.859 119.548 305.859 120.952Z" fill="#232325"/>
<path fill-rule="evenodd" clip-rule="evenodd" d="M329.715 120.952C329.715 122.358 328.575 123.497 327.17 123.497C325.765 123.497 324.626 122.358 324.626 120.952C324.626 119.548 325.765 118.408 327.17 118.408C328.575 118.408 329.715 119.548 329.715 120.952Z" fill="#232325"/>
<path fill-rule="evenodd" clip-rule="evenodd" d="M320.657 108.294L337.764 112.714C337.764 112.714 336.986 107.915 329.988 106.172C322.99 104.428 320.657 108.294 320.657 108.294Z" fill="#232325"/>
<path fill-rule="evenodd" clip-rule="evenodd" d="M310.028 108.294L292.921 112.714C292.921 112.714 293.699 107.915 300.696 106.172C307.695 104.428 310.028 108.294 310.028 108.294Z" fill="#232325"/>
<path d="M306.625 137.216C306.625 137.216 309.149 139.15 315.784 139.15C321.82 139.15 325.589 137.216 325.589 137.216" stroke="#232325" stroke-width="1.397" stroke-linecap="round" stroke-linejoin="round"/>
<path d="M313.442 121.695L312.776 120.981L310.964 122.672H313.442V121.695ZM318.378 121.695V122.672H320.726L319.071 121.007L318.378 121.695ZM312.466 121.695C312.466 127.127 308.062 131.531 302.63 131.531V133.484C309.14 133.484 314.419 128.205 314.419 121.695H312.466ZM302.63 131.531C297.199 131.531 292.795 127.127 292.795 121.695H290.842C290.842 128.205 296.12 133.484 302.63 133.484V131.531ZM292.795 121.695C292.795 116.264 297.199 111.86 302.63 111.86V109.907C296.12 109.907 290.842 115.186 290.842 121.695H292.795ZM302.63 111.86C308.062 111.86 312.466 116.264 312.466 121.695H314.419C314.419 115.186 309.14 109.907 302.63 109.907V111.86ZM339.025 121.695C339.025 127.127 334.622 131.531 329.19 131.531V133.484C335.701 133.484 340.978 128.205 340.978 121.695H339.025ZM329.19 131.531C323.758 131.531 319.355 127.127 319.355 121.695H317.402C317.402 128.205 322.68 133.484 329.19 133.484V131.531ZM319.355 121.695C319.355 116.264 323.758 111.86 329.19 111.86V109.907C322.68 109.907 317.402 115.186 317.402 121.695H319.355ZM329.19 111.86C334.622 111.86 339.025 116.264 339.025 121.695H340.978C340.978 115.186 335.701 109.907 329.19 109.907V111.86ZM313.442 121.695C314.108 122.409 314.108 122.409 314.108 122.41C314.108 122.41 314.107 122.41 314.107 122.41C314.107 122.41 314.106 122.411 314.106 122.411C314.105 122.412 314.105 122.412 314.105 122.412C314.104 122.413 314.104 122.413 314.105 122.412C314.106 122.411 314.109 122.409 314.114 122.404C314.125 122.394 314.145 122.377 314.173 122.355C314.228 122.31 314.314 122.244 314.425 122.169C314.651 122.017 314.961 121.843 315.316 121.729C315.668 121.617 316.041 121.572 316.418 121.645C316.785 121.717 317.218 121.913 317.686 122.384L319.071 121.007C318.351 120.282 317.573 119.881 316.792 119.729C316.02 119.578 315.308 119.682 314.723 119.869C314.141 120.054 313.662 120.328 313.334 120.549C313.168 120.661 313.035 120.763 312.941 120.839C312.894 120.878 312.856 120.91 312.828 120.934C312.814 120.946 312.803 120.956 312.794 120.964C312.79 120.968 312.786 120.971 312.783 120.974C312.782 120.976 312.78 120.977 312.779 120.978C312.778 120.979 312.778 120.979 312.777 120.98C312.777 120.98 312.777 120.98 312.777 120.98C312.776 120.981 312.776 120.981 313.442 121.695ZM318.378 120.719H313.442V122.672H318.378V120.719ZM291.843 120.719L288.219 120.628L288.17 122.58L291.794 122.671L291.843 120.719ZM288.17 122.58L291.794 122.671L291.843 120.719L288.219 120.628L288.17 122.58ZM340.017 122.671L344.064 122.606L344.033 120.654L339.986 120.719L340.017 122.671ZM344.033 120.654L339.986 120.719L340.017 122.671L344.064 122.606L344.033 120.654Z" fill="#FFFFFE"/>
<path fill-rule="evenodd" clip-rule="evenodd" d="M296.973 87.7441C296.973 87.7441 302.165 102.494 325.592 102.042C341.513 101.735 345.317 113.254 345.317 113.254C345.317 113.254 342.546 87.5009 341.817 87.7441C341.089 87.9864 317.593 81.4747 317.593 81.4747L296.973 87.7441Z" fill="#232325"/>
<defs>
<linearGradient id="paint0_linear_1_17" x1="377.595" y1="184.607" x2="377.595" y2="290.329" gradientUnits="userSpaceOnUse">
<stop stop-color="#FB930F"/>
<stop offset="1" stop-color="#F77819"/>
</linearGradient>
</defs>
</svg>
