<svg width="692" height="523" viewBox="0 0 692 523" fill="none" xmlns="http://www.w3.org/2000/svg">
<g clip-path="url(#clip0_1_225)">
<path fill-rule="evenodd" clip-rule="evenodd" d="M558.69 -6.31892C559.174 -4.73381 558.282 -3.05597 556.697 -2.57135L547.862 0.129745C546.277 0.614361 544.599 -0.277765 544.115 -1.86287L541.411 -10.7073C540.926 -12.2924 541.818 -13.9703 543.403 -14.4549L552.238 -17.156C553.823 -17.6406 555.501 -16.7485 555.986 -15.1634L558.69 -6.31892Z" fill="#3E7FFF"/>
<path fill-rule="evenodd" clip-rule="evenodd" d="M0.865266 251.812C2.27094 250.934 4.12251 251.361 5.00087 252.767L9.90186 260.61C10.7802 262.016 10.3527 263.868 8.94708 264.746L1.10386 269.647C-0.301813 270.525 -2.15339 270.098 -3.03175 268.692L-7.93274 260.849C-8.8111 259.443 -8.38363 257.592 -6.97796 256.713L0.865266 251.812Z" fill="#7047EB"/>
<path fill-rule="evenodd" clip-rule="evenodd" d="M646.335 318.438C647.547 319.568 647.614 321.467 646.483 322.68L644.073 325.264C642.942 326.477 641.043 326.543 639.831 325.413L637.246 323.002C636.034 321.872 635.968 319.973 637.098 318.76L639.508 316.175C640.639 314.963 642.538 314.897 643.75 316.027L646.335 318.438Z" fill="#202249"/>
</g>
<defs>
<clipPath id="clip0_1_225">
<rect width="691.661" height="522.785" fill="white" transform="scale(1.00041)"/>
</clipPath>
</defs>
</svg>
