<svg width="26" height="16" viewBox="0 0 26 16" fill="none" xmlns="http://www.w3.org/2000/svg">
<path d="M1.00194 7.01758H22.6335L17.3233 1.71739C16.9304 1.32452 16.9304 0.687536 17.3233 0.294658C17.7162 -0.0982194 18.3532 -0.0982194 18.7461 0.294658L25.7595 7.30814C25.8404 7.39618 25.9049 7.49797 25.9499 7.60872C25.9555 7.64188 25.9555 7.67575 25.9499 7.70891C25.9772 7.78993 25.9941 7.87411 26 7.95939V8.01951C25.9995 8.12589 25.9791 8.23124 25.9399 8.33011C25.8983 8.44259 25.8334 8.54501 25.7495 8.63069L18.736 15.6442C18.5479 15.8338 18.2918 15.9405 18.0247 15.9405C17.7575 15.9405 17.5014 15.8338 17.3133 15.6442C17.1236 15.456 17.0169 15.2 17.0169 14.9328C17.0169 14.6657 17.1236 14.4096 17.3133 14.2214L22.6335 9.02144H1.00194C0.44859 9.02144 1.14661e-05 8.57286 1.14661e-05 8.01951C1.14661e-05 7.46616 0.44859 7.01758 1.00194 7.01758Z" fill="#3D5FDD"/>
</svg>
